<svg width="1000" height="1000" viewBox="0 0 1000 1000" fill="none" xmlns="http://www.w3.org/2000/svg">
<rect width="1000" height="1000" fill="black"/>
<path d="M212.659 532.182V506L337.023 448.545V480.818L248.659 518.727L249.659 517V521.182L248.659 519.455L337.023 557.364V589.636L212.659 532.182ZM524.364 453.364V479H374.909V453.364H524.364ZM429 453.364V593H396.818V453.364H429ZM470.545 453.364H502.636V552.364C502.636 556.303 503.273 559.303 504.545 561.364C505.818 563.424 507.576 564.848 509.818 565.636C512.061 566.364 514.667 566.727 517.636 566.727C519.758 566.727 521.788 566.606 523.727 566.364C525.667 566.121 527.273 565.879 528.545 565.636V591.364C525.818 592.152 522.636 592.879 519 593.545C515.424 594.273 511.424 594.636 507 594.636C495.97 594.636 487.121 591.636 480.455 585.636C473.848 579.636 470.545 569.545 470.545 555.364V453.364ZM634.909 398.091L574.909 621H546.091L606.091 398.091H634.909ZM787.273 532.182L662.909 589.636V557.364L751.273 519.455L750.273 521.182V517L751.273 518.727L662.909 480.818V448.545L787.273 506V532.182Z" fill="url(#paint0_linear_4_5)"/>
<defs>
<linearGradient id="paint0_linear_4_5" x1="717.5" y1="590" x2="292.5" y2="455" gradientUnits="userSpaceOnUse">
<stop stop-color="#FF8C00"/>
<stop offset="1" stop-color="#FF5E0E"/>
</linearGradient>
</defs>
</svg>
